<?xml version="1.0" encoding="UTF-8"?>
<svg width="86px" height="86px" viewBox="0 0 86 86" version="1.1" xmlns="http://www.w3.org/2000/svg" xmlns:xlink="http://www.w3.org/1999/xlink">
    <!-- Generator: Sketch 59 (86127) - https://sketch.com -->
    <title>用户头像1</title>
    <desc>Created with Sketch.</desc>
    <defs>
        <circle id="path-1" cx="43" cy="43" r="43"></circle>
    </defs>
    <g id="页面-1" stroke="none" stroke-width="1" fill="none" fill-rule="evenodd">
        <g id="H5接入" transform="translate(-640.000000, -666.000000)">
            <g id="2">
                <g id="1备份-5" transform="translate(368.000000, 666.000000)">
                    <g id="用户头像1" transform="translate(272.000000, 0.000000)">
                        <mask id="mask-2" fill="white">
                            <use xlink:href="#path-1"></use>
                        </mask>
                        <use id="蒙版" fill="#5DA1E7" xlink:href="#path-1"></use>
                        <g id="编组-6" mask="url(#mask-2)">
                            <g transform="translate(6.000000, 6.000000)">
                                <path d="M57.434905,28.8890154 C58.6143025,27.3131725 59.9976993,24.467883 58.4644884,20.8667465 C56.5017539,16.2527665 51.7985195,13.8039307 49.4277866,12.8181757 C48.3611512,11.7463619 47.2403308,10.8191839 46.1402241,10.1709123 C41.4804248,7.42164506 37.2441759,19.6391212 39.9257389,24.440368 C42.6124469,29.2471957 57.761231,29.1511918 57.434905,28.8890154 Z M55.7451079,23.3478582 C55.7929212,21.8046837 54.1688635,18.6107592 51.894546,15.6475292 C53.814247,16.665551 56.2116834,18.3589413 57.3914825,20.8667473 C58.9203097,24.1140621 57.3333097,26.3648718 56.3567208,27.3454485 C55.8957201,26.2306012 55.697295,24.7894305 55.7451079,23.3478582 Z" id="形状" fill="#2C2C2C" fill-rule="nonzero" transform="translate(49.116815, 19.380620) scale(-1, 1) rotate(-105.000000) translate(-49.116815, -19.380620) "></path>
                                <path d="M44.4216844,1.95454545 C44.8812134,7.42276887 45.1952422,9.9199128 45.3637711,9.44597722 C44.7349793,11.2027056 45.6522725,15.2456258 41.0454545,18.0503376 C43.6816264,17.0045126 46.6602478,13.7157058 48.1727997,8.27266374 C49.7631465,11.4122973 53.3111553,1.95454545 44.4216844,1.95454545 Z" id="路径" fill="#2C2C2C" fill-rule="nonzero" transform="translate(45.636499, 10.002442) scale(1, -1) rotate(-345.000000) translate(-45.636499, -10.002442) "></path>
                                <path d="M42.467139,3.90909091 C42.9266679,9.37731433 43.2406968,11.8744583 43.4092256,11.4005227 C42.7804339,13.1572511 43.697727,17.2001712 39.0909091,20.0048831 C41.7270809,18.959058 44.7057023,15.6702513 46.2182543,10.2272092 C47.8086011,13.3668427 51.3566099,3.90909091 42.467139,3.90909091 Z" id="路径备份-3" fill="#2C2C2C" fill-rule="nonzero" transform="translate(43.681954, 11.956987) scale(1, -1) rotate(-345.000000) translate(-43.681954, -11.956987) "></path>
                                <g id="编组-2" stroke-width="1" fill="none" fill-rule="evenodd" transform="translate(0.000000, 31.272727)">
                                    <path d="M52.6020157,24.5332283 C50.6232848,23.6968553 48.4142286,22.8071348 45.9713502,21.8138356 C45.9120232,21.7604835 45.7968593,21.7604835 45.6799503,21.7087006 C45.5630413,21.6569176 45.3885504,21.6035656 45.2733856,21.5517829 L41.6090679,21.5517829 L32.0696332,21.5 L28.7543057,21.5 C28.5798148,21.5517829 28.347741,21.6569177 28.1732502,21.7604841 C28.1139232,21.8138361 27.9987593,21.8138361 27.9394321,21.865619 C25.4965537,22.8589088 23.2874975,23.7486388 21.3087666,24.5850118 C9.15374899,29.7633019 5.02350886,32.6929589 3.22103209,34.1051905 C2.11476079,34.9949148 1.1847225,36.6158772 0.369841566,38.7609505 C0.369841566,40.225956 -0.462302412,42.5175121 0.369842248,54.3515656 C1.20198691,66.1856191 24.1486944,56.2431421 36.9257577,56.2226884 C49.6939019,56.2226884 64.5916431,59.5746628 73.5985116,52.6732971 C74.5618846,51.9351284 74.4306556,40.8248155 73.5985116,39.2835002 C72.8429653,36.8245934 71.853603,34.9415831 70.6321637,34.0000732 C68.8296736,32.5360481 64.8163763,29.6597386 52.6020157,24.5332283 Z" id="路径" fill="#DADFEB" fill-rule="nonzero"></path>
                                    <path d="M44.9545455,7.18240043 C44.9545455,6.70003685 44.903114,6.27073401 44.7986952,5.84142533 C44.279717,3.05496776 42.3580908,1.28630587 40.071787,0.482363331 C38.2015909,-0.160787777 36.0711352,-0.160787777 34.200939,0.482363331 C31.9161922,1.28630197 29.9930119,3.05496776 29.4740309,5.84142533 C29.3696119,6.27072914 29.3696119,6.70003198 29.3181818,7.18240043 L29.3181818,25.8337777 C31.3442261,28.2986524 33.9936627,29.6380212 36.6430994,29.7988077 L37.6826184,29.7988077 C40.3320551,29.6380202 42.9285075,28.351719 44.9031151,25.8337777 L44.9031151,7.44933961 C44.9545455,7.34322009 44.9545455,7.28855207 44.9545455,7.18243158 L44.9545455,7.18240043 Z" id="路径" fill="#FFDECC" fill-rule="nonzero"></path>
                                    <path d="M44.9545455,10.783827 C44.9545455,10.4598471 44.9031152,10.1715055 44.7986964,9.88315995 C44.2797182,8.01163331 42.358092,6.82371 40.0717881,6.2837413 C38.2015919,5.8517683 36.0711362,5.8517683 34.20094,6.2837413 C31.9161931,6.82370739 29.9930127,8.01163331 29.4740317,9.88315995 C29.3696127,10.1715022 29.3696127,10.4598439 29.3181818,10.783827 L29.3181818,19.2073153 L29.3181818,19.2073149 C30.4087128,19.7737599 31.5739124,20.2676755 32.7982958,20.6825009 C34.4612072,21.222467 35.9152863,21.5464469 37.110644,21.5464469 C38.2530174,21.5464469 39.7086535,21.2591848 41.3185713,20.7548577 L41.3185719,20.7548575 C42.5839272,20.3152467 43.7993934,19.8098321 44.9545455,19.2429503 L44.9545455,10.7838264 L44.9545455,10.783827 Z" id="路径" fill="#F7C5AA" fill-rule="nonzero"></path>
                                    <path d="M29.2965793,22.501901 L29.0907786,22.2934865 L28.5739545,21.7755605 L22.7207907,24.371302 L22.8755281,24.5797165 L31.0497577,35.8777799 L37.084527,30.1230441 L36.5692506,29.6035624 L29.2965793,22.501901 Z M45.0798194,22.3463614 L44.8214078,22.5532202 L37.6524134,29.6035455 L37.137137,30.1230271 L43.1719063,35.8777629 L51.5088811,24.5797165 L51.7146818,24.3199762 L45.6477124,21.7755408 L45.0798194,22.3463614 Z" id="形状" fill="#FFFFFF" fill-rule="nonzero"></path>
                                </g>
                                <g id="编组-5" stroke-width="1" fill="none" fill-rule="evenodd" transform="translate(11.727273, 1.954545)">
                                    <g id="编组-3" fill-rule="nonzero">
                                        <path d="M47.3870078,25.691989 C47.3599136,25.8951952 47.172645,24.2462562 46.2442691,24.1231372 C45.8159418,24.0641675 46.6837504,23.5570819 46.3574244,23.2949054 C47.5368219,21.7190626 46.689848,19.3103232 45.1566371,15.7091866 C43.1939026,11.0952066 40.7210389,8.20982079 38.350306,7.2240657 C37.2836707,6.15225197 36.1628502,5.22507398 35.0627435,4.57680231 C30.4029442,1.82753511 22.4930108,-0.712144517 19.8115315,0.18275834 C17.1248235,1.07208123 15.0062933,4.57680231 14.727387,5.66973124 C14.727387,5.66973124 10.4911298,4.91985984 6.81747874,10.6160162 C4.68128017,13.9282869 2.63763801,17.0303878 1.37095495,20.3828009 C0.459305155,22.7955803 7.94946744,27.634346 7.94946744,27.634346 C8.37301369,23.9264288 10.5612683,20.9094069 12.1163976,19.6714406 C13.6663484,18.4390544 15.4306552,16.1723079 15.2911979,14.4574009 C15.2911979,14.4574009 26.1666953,14.0450112 28.8482584,18.8462581 C31.5349664,23.6530857 37.7450845,32.0231781 40.1477329,32.5750678 C40.1477329,32.5750678 43.2765482,36.0330884 43.5606413,34.3875168 C43.8455283,32.7427401 46.3140019,28.1172458 45.335139,29.3181818 C45.3346371,29.3181576 47.4674948,28.3388509 47.3870078,25.691989 Z M44.6676273,17.7537483 C44.7154406,16.2105737 43.0913829,13.0166493 40.8170654,10.0534192 C42.7367664,11.0714411 42.9038322,13.2013814 44.0836312,15.7091875 C45.6124585,18.9565023 46.2558291,20.7707619 45.2792402,21.7513385 C44.8182395,20.6364913 44.6198144,19.1953206 44.6676273,17.7537483 Z" id="形状" fill="#2C2C2C" transform="translate(24.341620, 17.415774) scale(-1, 1) translate(-24.341620, -17.415774) "></path>
                                        <path d="M47.9319855,25.691989 C47.9048913,25.8951952 47.7176228,24.2462562 46.7892468,24.1231372 C46.3609196,24.0641675 47.2287282,23.5570819 46.9024022,23.2949054 C48.0817997,21.7190626 47.8188218,19.3103232 46.2856109,15.7091866 C44.3228764,11.0952066 41.2660167,8.20982079 38.8952837,7.2240657 C37.8286484,6.15225197 36.707828,5.22507398 35.6077212,4.57680231 C30.947922,1.82753511 23.0379886,-0.712144517 20.3565092,0.18275834 C17.6698012,1.07208123 15.5512711,4.57680231 15.2723647,5.66973124 C15.2723647,5.66973124 11.0361075,4.91985984 7.3624565,10.6160162 C6.68333827,11.6690192 6.0135744,12.700781 5.37515478,13.726097 C2.56008016,18.2471688 8.4944452,27.634346 8.4944452,27.634346 C8.91799145,23.9264288 11.1062461,20.9094069 12.6613753,19.6714406 C14.2113261,18.4390544 15.975633,16.1723079 15.8361756,14.4574009 C15.8361756,14.4574009 26.7116731,14.0450112 29.3932361,18.8462581 C32.0799441,23.6530857 38.2900623,32.0231781 40.6927107,32.5750678 C40.6927107,32.5750678 43.821526,36.0330884 44.1056191,34.3875168 C44.3905061,32.7427401 46.8589797,28.1172458 45.8801168,29.3181818 C45.8796148,29.3181576 48.0124726,28.3388509 47.9319855,25.691989 Z M45.2126051,17.7537483 C45.2604183,16.2105737 43.6363607,13.0166493 41.3620432,10.0534192 C43.2817441,11.0714411 44.032806,13.2013814 45.2126051,15.7091875 C46.7414323,18.9565023 46.8008069,20.7707619 45.8242179,21.7513385 C45.3632173,20.6364913 45.1647922,19.1953206 45.2126051,17.7537483 Z" id="形状" fill="#2C2C2C"></path>
                                        <path d="M5.13048716,24.8295867 C6.76813452,35.8059526 15.4371578,49.1686673 25.6172505,48.8114612 C34.9658643,48.4845085 42.6774661,36.1636634 44.5664453,25.8397893 C44.8104576,24.5061842 43.0832809,22.6890495 41.7680008,22.5214938 C37.5276135,21.9813039 30.807052,17.7855476 21.6063163,9.932282 C16.2676676,18.2159163 11.7280537,22.4992648 7.98547416,22.7833296 C6.87505223,22.8676115 4.98542059,23.857275 5.13048716,24.8295867 Z" id="路径" fill="#FFDECC"></path>
                                        <path d="M45.3523526,29.3642809 C45.1829664,29.3181818 45.0135802,29.3181818 44.9006561,29.3181818 C44.5054217,29.3181818 44.0537252,29.4103801 43.6020286,29.6408758 C43.4326424,29.7330741 43.3197184,29.7791732 43.1503322,29.9174706 C42.4727874,30.378462 41.8517048,31.0699491 41.4000083,31.9458327 C41.2870842,32.1302293 41.2306221,32.3146259 41.17416,32.4990224 C40.8918498,33.1444104 40.7789256,33.7436992 40.7789256,34.342988 L40.7789256,34.9422769 C40.8918498,35.8181605 41.2306221,36.5096476 41.8517048,36.8784407 C42.021091,36.970639 42.1340151,37.0167382 42.3034013,37.0628373 C43.8278769,37.4777296 45.6911249,36.0947553 46.5380559,33.9741949 C47.3285247,31.8075353 46.8203661,29.7791731 45.3523526,29.3642809 L45.3523526,29.3642809 Z M9.64920841,32.4715166 C9.59348728,32.2860263 9.48204503,32.1005361 9.4263239,31.9614183 C9.03627611,31.126712 8.42334382,30.4774961 7.81041152,30.0137704 L7.75469039,29.9673978 L7.58752711,29.82828 C7.08603707,29.5036721 6.58454702,29.3181818 6.02733585,29.3181818 C5.86017247,29.3181818 5.63728807,29.3181818 5.47012468,29.3645543 C4.02137568,29.7819075 3.46416451,31.8223006 4.29998122,33.9554389 C5.13579792,36.0885772 7.03031594,37.4797543 8.47906494,37.0624012 C8.70194945,37.0160286 8.86911273,36.9232834 9.03627611,36.8305384 C9.59348728,36.4595578 9.98353507,35.7175967 10.0392562,34.8828903 L10.0392562,34.4191646 C10.0392562,33.7699486 9.92781394,33.1207326 9.64920841,32.4715166 L9.64920841,32.4715166 Z" id="形状" fill="#FFDECC"></path>
                                        <path d="M26.8737319,52.5768914 C26.7855381,52.5768914 26.6995491,52.5686456 26.6135602,52.5665842 L26.8649126,52.7727273 L27.1140601,52.5665842 C27.034052,52.5714893 26.9539094,52.574239 26.8737319,52.5748299 L26.8737319,52.5768914 Z M35.1485172,45.7205731 L35.4858586,45.9267161 L35.1485172,45.7205731 Z M20.7993825,45.3301996 L21.1367239,45.1371882 L20.7993825,45.3326428 L20.7993825,45.3301996 Z M30.2427359,44.7949907 L30.6065354,44.9904453 L30.2427359,44.7949907 Z M18.2858586,45.9287776 C18.3916912,45.8586889 18.4953189,45.7886003 18.6011515,45.7226345 C18.4931141,45.7886003 18.3916912,45.8628118 18.2858586,45.9287776 Z M23.1585672,44.9945681 C23.275424,44.9208117 23.3922808,44.8544309 23.5113425,44.7991136 C23.3922808,44.8544309 23.2776289,44.9244995 23.1585672,44.9945681 Z" id="形状" fill="#D5E270"></path>
                                        <path d="M31.721267,20.5053455 C35.4858586,27.6541067 35.8521079,30.9686132 38.1574287,31.2819727 C40.4627496,31.5953322 40.2263647,32.959041 39.3782992,37.1363636 C42.8252486,32.5980408 43.4292849,33.4522747 42.758611,29.152578 C42.5547409,27.8455644 47.0630971,24.1854815 46.6677019,22.8059307 C46.2843975,21.3981773 44.6490396,22.1261865 43.6833843,20.5053455 C40.5896451,15.3125411 34.9173493,9.9039342 29.2943113,9.9039342 C25.1387909,9.46879646 19.4567528,9.9039342 13.2658755,14.5163946 C2.15621883,22.9580674 6.07482297,34.4542741 8.95824529,36.5429354 C10.0208925,24.274094 12.9266493,30.1813543 17.8454285,21.3045438 C24.2866752,14.058598 28.0593566,13.5515702 31.721267,20.5053455 Z" id="路径" fill="#2C2C2C"></path>
                                        <path d="M33.1438988,19.1451773 C30.2980606,25.4644484 15.5566185,29.2202416 16.182703,28.5644682 C18.117873,26.5375322 20.9067945,20.9932659 20.5652938,20.3971084 C19.8253759,19.1451773 9.27752143,28.4855561 5.12259769,34.3875168 C2.39059294,20.4970434 10.60486,7.81818182 24.0941333,7.81818182 C38.0956574,7.81818182 47.8284242,21.8278867 44.1857513,35.1818182 C42.7628322,29.9356308 39.0063257,26.7759953 36.0466539,23.1990493 C34.9652354,24.1529015 34.1684007,25.3452168 33.6561497,26.7163795 C32.4039808,24.3913646 32.0055635,21.7086552 33.1438988,19.1451773 Z" id="路径" fill="#2C2C2C" transform="translate(24.777077, 21.500000) scale(-1, 1) translate(-24.777077, -21.500000) "></path>
                                        <path d="M30.6389327,16.2206629 C34.4035242,23.3694242 38.6788645,26.6839306 40.9841853,26.9972902 C43.2895061,27.3106497 43.0531212,28.6743585 42.2050558,32.8516811 C45.6520052,28.3133582 46.2560414,29.1675922 45.5853676,24.8678955 C45.3814974,23.5608818 45.9807627,19.900799 45.5853676,18.5212482 C45.2020632,17.1134947 43.5667053,17.841504 42.6010499,16.2206629 C39.5073108,11.0278585 33.835015,5.61925166 28.211977,5.61925166 C24.0564565,5.18411392 18.3744184,5.61925166 12.1835411,10.231712 C1.07388449,18.6733848 4.99248863,30.1695916 7.87591095,32.2582528 C8.93855816,19.9894114 11.844315,25.8966717 16.7630942,17.0198613 C23.2043409,9.77391548 26.9770222,9.26688763 30.6389327,16.2206629 Z" id="路径" fill="#2C2C2C"></path>
                                        <path d="M44.5361116,19.6292914 C44.5361116,10.7398709 35.3752448,3.53349927 26.485774,3.53349927 L23.912263,3.53349927 C14.2948643,3.53349927 6.49841771,11.3299458 6.49841771,20.9473438 C6.49841771,20.9473438 6.11018083,26.3623218 7.42826674,31.7493427 C8.74635264,37.1363636 14.1287788,38.4344499 14.4140069,38.6440751 C13.7031052,37.0537283 8.74635264,35.7437196 9.78689476,29.3753771 C10.8274369,23.0070345 13.2379449,18.2787371 17.8836132,16.5500847 C22.5293235,14.8214491 26.0112198,10.953211 26.264013,10.2423076 C25.6352213,11.999036 26.7390893,15.8747576 22.1322713,18.6794694 C24.7684432,17.6336444 28.1192921,15.0338224 29.6318441,9.59078028 C31.2221908,12.7304138 37.7792492,17.1983189 38.7105531,18.0993715 C40.4002955,19.7372535 43.8183369,22.822021 42.9388935,30.6916348 C42.05945,38.5612486 39.0865263,40.2845192 38.7105531,40.3276872 C40.4694399,40.2023614 43.2522764,37.9598015 44.2981014,32.8516811 C45.3288009,27.8191887 44.5360604,19.6291487 44.5360604,19.6291487 L44.5361116,19.6292914 Z" id="路径" fill="#2C2C2C" transform="translate(25.636137, 21.930593) scale(-1, 1) translate(-25.636137, -21.930593) "></path>
                                        <path d="M45.9426389,19.7655511 C45.9426389,10.8761306 36.7817721,3.66975891 27.8923012,3.66975891 L25.3187902,3.66975891 C15.7013916,3.66975891 7.90494499,11.4662055 7.90494499,21.0836034 C7.90494499,21.0836034 3.87163943,24.6528406 5.18972618,30.7894684 C6.50781209,36.9261298 10.4815122,40.4957219 10.7667403,40.7053471 C10.0558386,39.1150004 8.25908731,37.1969694 8.71933902,29.9129456 C9.17958821,22.6289051 14.6444722,18.4149968 19.2901405,16.6863444 C23.9358508,14.9577088 28.5815946,11.872094 28.8343879,11.1611907 C28.2055962,12.9179191 29.1228893,16.9608392 24.5160714,19.7655511 C27.1522432,18.719726 30.1308646,15.4309193 31.6434166,9.9878772 C33.2337633,13.1275107 39.1857765,17.3345785 40.1170803,18.2356311 C41.8068227,19.8735131 44.3543993,25.4246012 43.4749559,33.2942151 C42.5955125,41.1638289 40.121431,41.604117 39.7454577,41.647285 C41.5043445,41.5219592 43.5686564,40.0538529 44.6144814,34.9457325 C45.6451809,29.9132401 45.9426389,19.7654083 45.9426389,19.7654083 L45.9426389,19.7655511 Z" id="路径" fill="#2C2C2C" transform="translate(25.433838, 22.658522) scale(-1, 1) rotate(-5.000000) translate(-25.433838, -22.658522) "></path>
                                        <path d="M19.0125935,13.6818182 C19.4721225,19.1500416 19.7861513,21.6471855 19.9546802,21.1732499 C19.3258884,22.9299784 20.2431816,26.9728985 15.6363636,29.7776103 C18.2725355,28.7317853 21.2511569,25.4429785 22.7637088,19.9999365 C24.3540556,23.13957 27.9020644,13.6818182 19.0125935,13.6818182 Z" id="路径备份-3" fill="#2C2C2C" transform="translate(20.227409, 21.729714) scale(-1, 1) rotate(-345.000000) translate(-20.227409, -21.729714) "></path>
                                    </g>
                                </g>
                            </g>
                        </g>
                    </g>
                </g>
            </g>
        </g>
    </g>
</svg>