<?xml version="1.0" standalone="no"?>
<!DOCTYPE svg PUBLIC "-//W3C//DTD SVG 20010904//EN"
 "http://www.w3.org/TR/2001/REC-SVG-20010904/DTD/svg10.dtd">
<svg version="1.0" xmlns="http://www.w3.org/2000/svg"
 width="1345.000000pt" height="512.000000pt" viewBox="0 0 1345.000000 512.000000"
 preserveAspectRatio="xMidYMid meet">

<g transform="translate(0.000000,512.000000) scale(0.100000,-0.100000)"
fill="#000000" stroke="none">
<path d="M2340 5110 c-504 -49 -958 -229 -1360 -538 -116 -89 -359 -336 -446
-452 -283 -378 -444 -763 -510 -1225 -21 -148 -24 -495 -5 -635 79 -582 312
-1070 706 -1479 687 -713 1737 -963 2675 -636 829 289 1464 1002 1654 1855 80
362 80 759 0 1120 -229 1029 -1075 1813 -2128 1971 -148 22 -453 32 -586 19z
m520 -54 c398 -50 759 -183 1085 -401 160 -107 256 -185 391 -320 586 -585
841 -1409 693 -2236 -87 -486 -334 -955 -694 -1314 -408 -409 -949 -667 -1520
-725 -150 -16 -505 -8 -635 14 -450 76 -824 239 -1180 514 -125 97 -344 320
-442 452 -343 459 -508 955 -508 1520 0 407 78 746 255 1105 377 768 1091
1278 1945 1390 134 18 471 18 610 1z"/>
<path d="M2370 4944 c-162 -19 -294 -41 -405 -69 -759 -191 -1387 -763 -1653
-1505 -215 -598 -185 -1234 87 -1833 66 -145 225 -397 252 -397 24 0 322 103
467 161 1002 404 1880 1173 2433 2130 147 256 297 592 394 887 55 164 57 152
-45 222 -284 193 -603 319 -965 381 -115 20 -469 34 -565 23z"/>
<path d="M4584 3810 c48 -202 50 -224 51 -440 0 -248 -13 -341 -76 -533 -154
-473 -504 -840 -1018 -1067 -299 -132 -530 -197 -1411 -396 -256 -58 -572
-132 -703 -164 -327 -82 -687 -185 -687 -197 0 -3 35 -42 77 -87 382 -402 849
-647 1396 -733 158 -24 528 -25 687 0 563 87 1042 342 1424 757 662 721 814
1792 377 2670 -65 130 -126 229 -117 190z"/>
<path d="M13241 3879 c-39 -8 -76 -34 -105 -72 -29 -39 -33 -131 -8 -177 53
-97 219 -109 282 -20 49 69 31 195 -34 242 -33 24 -94 36 -135 27z"/>
<path d="M6505 3410 c-96 -15 -193 -48 -290 -98 -73 -38 -109 -66 -191 -147
-87 -87 -106 -112 -146 -195 -92 -188 -90 -171 -98 -945 -4 -374 -6 -683 -3
-687 2 -5 58 -8 124 -8 l119 0 0 380 0 380 73 -61 c80 -68 238 -150 332 -174
217 -55 487 -30 670 62 123 61 230 149 321 260 190 233 202 602 27 858 -46 67
-136 159 -209 212 -72 52 -217 118 -314 143 -97 24 -317 35 -415 20z m395
-236 c258 -86 420 -300 420 -554 0 -273 -173 -489 -448 -561 -100 -26 -286
-28 -387 -5 -521 123 -644 760 -203 1048 125 82 233 109 408 104 105 -3 139
-8 210 -32z"/>
<path d="M8470 3405 c-110 -20 -175 -42 -270 -91 -213 -109 -361 -282 -416
-484 -26 -93 -25 -302 0 -390 30 -102 113 -253 179 -326 281 -307 821 -375
1214 -153 91 52 223 178 270 259 57 97 63 90 -85 90 l-131 0 -28 -34 c-42 -50
-129 -119 -203 -159 -104 -57 -205 -81 -340 -81 -201 1 -342 55 -469 183 -77
76 -159 206 -148 235 7 17 163 64 277 82 116 19 214 16 560 -21 280 -29 400
-29 530 0 98 23 129 39 145 79 12 29 12 44 -4 122 -41 197 -110 324 -250 465
-82 82 -110 102 -191 141 -137 67 -233 89 -415 93 -101 3 -174 0 -225 -10z
m363 -207 c167 -35 316 -142 399 -287 26 -45 80 -182 74 -188 -1 -1 -31 -7
-68 -12 -45 -8 -97 -8 -164 -1 -230 23 -582 50 -653 50 -89 0 -227 -21 -326
-50 -38 -11 -72 -20 -74 -20 -10 0 11 96 35 154 93 232 360 387 639 370 50 -3
112 -10 138 -16z"/>
<path d="M10520 3414 c-333 -43 -607 -259 -711 -561 -45 -132 -49 -199 -49
-880 l0 -643 120 0 120 0 0 381 0 382 43 -40 c87 -80 218 -154 341 -192 210
-65 496 -42 690 56 209 104 375 284 443 480 25 71 27 91 27 223 1 166 -10 214
-77 345 -32 62 -63 102 -137 176 -132 132 -255 202 -439 250 -75 19 -293 33
-371 23z m355 -238 c102 -33 168 -71 243 -141 127 -117 185 -245 185 -410 1
-168 -50 -292 -164 -405 -125 -124 -276 -181 -484 -182 -136 -1 -233 20 -345
75 -90 44 -216 169 -259 257 -34 71 -61 180 -61 250 0 70 27 179 62 250 47 98
168 215 278 269 113 55 195 71 345 67 95 -3 136 -9 200 -30z"/>
<path d="M12195 3406 c-136 -27 -216 -67 -306 -153 -133 -127 -156 -318 -54
-456 70 -94 199 -171 400 -237 127 -42 251 -99 293 -135 73 -62 98 -171 56
-250 -82 -157 -394 -197 -674 -87 -36 14 -74 31 -85 39 -20 12 -24 7 -70 -78
-28 -50 -51 -95 -53 -99 -4 -11 102 -56 199 -84 169 -48 410 -53 574 -11 90
23 197 79 259 136 178 163 164 455 -28 599 -70 52 -128 80 -286 135 -315 111
-392 168 -392 287 1 84 48 140 150 179 46 18 78 22 167 22 126 -1 208 -18 298
-64 33 -16 63 -27 67 -22 14 16 100 164 100 172 0 12 -147 78 -215 96 -83 23
-310 29 -400 11z"/>
<path d="M13160 2620 l0 -760 125 0 125 0 0 760 0 760 -125 0 -125 0 0 -760z"/>
</g>
</svg>
