<?xml version="1.0" encoding="UTF-8"?>
<svg width="44px" height="44px" viewBox="0 0 44 44" version="1.1" xmlns="http://www.w3.org/2000/svg" xmlns:xlink="http://www.w3.org/1999/xlink">
    <!-- Generator: Sketch 59 (86127) - https://sketch.com -->
    <title>机器人头像</title>
    <desc>Created with Sketch.</desc>
    <defs>
        <circle id="path-1" cx="22" cy="22" r="22"></circle>
    </defs>
    <g id="页面-1" stroke="none" stroke-width="1" fill="none" fill-rule="evenodd">
        <g id="在线工作台-静音-开与返回" transform="translate(-1406.000000, -315.000000)">
            <g id="中间" transform="translate(450.000000, 51.000000)">
                <g id="4" transform="translate(705.000000, 264.000000)">
                    <g id="机器人头像" transform="translate(251.000000, 0.000000)">
                        <mask id="mask-2" fill="white">
                            <use xlink:href="#path-1"></use>
                        </mask>
                        <use id="蒙版" fill="#DADFEB" xlink:href="#path-1"></use>
                        <g id="编组-7" mask="url(#mask-2)">
                            <g transform="translate(5.000000, 5.000000)">
                                <path d="M30.6840415,23.5750298 L30.6840415,25.1040315 L30.6840415,25.1040402 C30.6779484,25.9241599 31.3378504,26.5939404 32.1579701,26.6000743 C32.1653307,26.6000743 32.1726916,26.6000743 32.1800523,26.6000743 L32.1800522,26.6000743 C33.4193798,26.6000743 34.4240548,25.5953582 34.4240548,24.3560306 C34.4240548,23.116703 33.4193798,22.112028 32.1800522,22.112028 L32.1800521,22.112028 C31.3599066,22.112028 30.6950504,22.7768843 30.6950504,23.5970297" id="路径" stroke="none" fill="#EFEFEF" fill-rule="nonzero"></path>
                                <rect id="矩形备份" stroke="none" fill="#FFFFFF" fill-rule="evenodd" x="31" y="22" width="4" height="4" rx="2"></rect>
                                <rect id="矩形" stroke="none" fill="#347AF8" fill-rule="evenodd" x="30" y="21" width="3" height="6" rx="1"></rect>
                                <rect id="矩形备份" stroke="none" fill="#FFFFFF" fill-rule="evenodd" transform="translate(2.000000, 24.000000) scale(-1, 1) translate(-2.000000, -24.000000) " x="0" y="22" width="4" height="4" rx="2"></rect>
                                <rect id="矩形" stroke="none" fill="#347AF8" fill-rule="evenodd" transform="translate(3.500000, 24.000000) scale(-1, 1) translate(-3.500000, -24.000000) " x="2" y="21" width="3" height="6" rx="1"></rect>
                                <path d="M22.0190225,33.5290252 L12.3720113,33.5290252 L12.3720109,33.5290252 C7.20883693,33.529057 3.0181758,29.3531411 3,24.1900144 L3,24.1900165 C3,16.353066 9.35306599,10 17.1900165,10 L17.1900173,10 C25.0140772,10.0181948 31.3470338,16.3659566 31.3470338,24.1900165 L31.3470338,24.1900165 C31.3470338,29.3660382 27.1510403,33.5620274 21.9750229,33.5620274" id="路径" stroke="none" fill="#FFFFFF" fill-rule="nonzero"></path>
                                <rect id="矩形" stroke="none" fill="#FFFFFF" fill-rule="evenodd" x="17" y="5" width="1" height="6"></rect>
                                <path d="M23.0443241,31.8902804 L11.2527275,31.8902804 L11.2527272,31.8902804 C7.88147198,31.8902804 5.14852555,29.1730621 5.14852555,25.8212107 C5.14852555,25.8212107 5.14852555,25.8212107 5.14852555,25.8212107 L5.14852555,25.8212125 C5.14852555,19.2319417 10.5211096,13.8902804 17.1485256,13.8902804 C23.7759415,13.8902804 29.1485256,19.2319417 29.1485256,25.8212125 C29.1485256,25.8212125 29.1485256,25.8212125 29.1485256,25.8212125 L29.1485256,25.8212125 C29.1485256,29.1730639 26.4155791,31.8902804 23.0443239,31.8902804 C23.0443239,31.8902804 23.0443239,31.8902804 23.0443239,31.8902804" id="路径" stroke="none" fill="#585858" fill-rule="nonzero" opacity="0.200000003"></path>
                                <path d="M21.9720314,30.2960391 L12.3250202,30.2960391 L12.3250199,30.2960391 C9.56690853,30.2960391 7.33101413,28.0601432 7.33101413,25.3020318 C7.33101413,25.3020318 7.33101413,25.3020318 7.33101413,25.3020318 L7.33101413,25.3020333 C7.33101413,19.8799723 11.7264646,15.4845218 17.1485256,15.4845218 C22.5705866,15.4845218 26.966037,19.8799723 26.966037,25.3020333 C26.966037,25.3020333 26.966037,25.3020333 26.966037,25.3020333 L26.966037,25.3020333 C26.966037,28.0601447 24.7301426,30.2960391 21.9720312,30.2960391 C21.9720312,30.2960391 21.9720312,30.2960391 21.9720312,30.2960391" id="路径" stroke="none" fill="#585858" fill-rule="nonzero"></path>
                                <rect id="矩形" stroke="none" fill="#1D1513" fill-rule="evenodd" x="5" y="22" width="24" height="8" rx="2"></rect>
                                <circle id="椭圆形" stroke="none" fill="#347AF8" fill-rule="evenodd" cx="13" cy="26" r="2"></circle>
                                <circle id="椭圆形备份" stroke="none" fill="#347AF8" fill-rule="evenodd" cx="22" cy="26" r="2"></circle>
                                <path d="M19.8386887,0.655075165 C21.0644262,1.40212366 21.9124761,2.72154835 21.9937271,4.26321606 C21.997994,4.34417188 22.0000724,4.42522835 21.9999695,4.50629612 C21.9977286,6.14877733 21.1157414,7.58452272 19.8004008,8.36838846 M15.1574877,8.34299492 C13.8617618,7.55149766 12.9977541,6.12320111 12.9999529,4.493838 C13.0022675,2.85416895 13.8836288,1.41202375 15.207378,0.627103917" id="形状" stroke="#FFFFFF" stroke-width="1" fill="none" stroke-linecap="round" fill-rule="nonzero"></path>
                                <path d="M18.6203532,2.26467989 C19.39666,2.65466014 19.9475207,3.43882822 19.9965151,4.36845337 C19.9988856,4.41342882 20.0000402,4.4584602 19.999983,4.50349784 C19.9986895,5.45072633 19.4707287,6.27418918 18.6935091,6.69725261 M16.2946698,6.69078474 C15.5217814,6.26465594 14.9986987,5.44147405 14.9999738,4.49657667 C15.0012658,3.58122563 15.4956722,2.77667848 16.2370528,2.34206385" id="形状" stroke="#FFFFFF" stroke-width="1" fill="none" stroke-linecap="round" fill-rule="nonzero"></path>
                                <path d="M19,4.50209816 L19,4.50209068 C18.9988559,5.33050903 18.3263572,6.00113957 17.4979284,6 C16.6694995,5.99885445 15.9988604,5.32636434 16,4.497946 C16.0011021,3.70101367 16.6252026,3.04406305 17.4210411,3.00211665 L17.421041,3.00211665 C18.2483165,2.95851496 18.9543091,3.5938021 18.997909,4.42107202 C18.9993313,4.44805729 19,4.47507612 19,4.50209871" id="路径备份-2" stroke="none" fill="#347AF8" fill-rule="nonzero"></path>
                                <path d="M18.2320014,11.6160007 L18.2320014,11.6160007 C18.2320014,11.9562083 17.9562083,12.2320014 17.6160007,12.2320014 C17.2757931,12.2320014 17,11.9562083 17,11.6160007 C17,11.2757931 17.2757931,11 17.6160007,11 L17.6160007,11 C17.9562083,11 18.2320014,11.2757931 18.2320014,11.6160007 C18.2320014,11.6160007 18.2320014,11.6160007 18.2320014,11.6160007" id="形状" stroke="none" fill="#347AF8" fill-rule="nonzero"></path>
                                <polygon id="路径" stroke="none" fill="#FFFFFF" fill-rule="nonzero" points="17.7150008 11.9130011 17.5830007 11.3190004 17.9900012 11.3080004 18.1330013 11.9130011 17.7150008 11.9130011"></polygon>
                                <polygon id="路径" stroke="none" fill="#FFFFFF" fill-rule="nonzero" points="17.3080004 12.1330013 17.3080004 11.7260008 17.902001 11.5830007 17.902001 12.0010012 17.3080004 12.1330013"></polygon>
                            </g>
                        </g>
                    </g>
                </g>
            </g>
        </g>
    </g>
</svg>